<mxfile host="app.diagrams.net" modified="2024-01-23T18:47:58.034Z" agent="Mozilla/5.0 (Windows NT 10.0; Win64; x64) AppleWebKit/537.36 (KHTML, like Gecko) Chrome/118.0.0.0 YaBrowser/23.11.0.0 Safari/537.36" etag="mBEk1jM0jmbwnz-0y1QW" version="22.1.22" type="device">
  <diagram name="Sayfa -1" id="MR46gnZrJj-Q-5bPGapM">
    <mxGraphModel dx="1050" dy="567" grid="1" gridSize="10" guides="1" tooltips="1" connect="1" arrows="1" fold="1" page="1" pageScale="1" pageWidth="1169" pageHeight="827" math="0" shadow="0">
      <root>
        <mxCell id="0" />
        <mxCell id="1" parent="0" />
        <mxCell id="YeN5vL-DaQQFCyyVUgX1-59" value="" style="rounded=1;whiteSpace=wrap;html=1;dashed=1;fillColor=none;strokeColor=#007FFF;" parent="1" vertex="1">
          <mxGeometry x="130" y="80" width="309.6" height="170" as="geometry" />
        </mxCell>
        <mxCell id="YeN5vL-DaQQFCyyVUgX1-137" value="" style="rounded=1;whiteSpace=wrap;html=1;dashed=1;movable=1;resizable=1;rotatable=1;deletable=1;editable=1;locked=0;connectable=1;strokeColor=#007FFF;fillColor=none;" parent="1" vertex="1">
          <mxGeometry x="129.60000000000002" y="461.25" width="270" height="165" as="geometry" />
        </mxCell>
        <mxCell id="YeN5vL-DaQQFCyyVUgX1-101" value="" style="rounded=1;whiteSpace=wrap;html=1;dashed=1;fillColor=none;strokeColor=#007FFF;movable=1;resizable=1;rotatable=1;deletable=1;editable=1;locked=0;connectable=1;" parent="1" vertex="1">
          <mxGeometry x="129.6" y="280" width="230" height="150" as="geometry" />
        </mxCell>
        <mxCell id="YeN5vL-DaQQFCyyVUgX1-3" value="" style="endArrow=classic;html=1;rounded=0;entryX=0.5;entryY=0;entryDx=0;entryDy=0;exitX=0.5;exitY=1;exitDx=0;exitDy=0;" parent="1" source="YeN5vL-DaQQFCyyVUgX1-5" target="YeN5vL-DaQQFCyyVUgX1-57" edge="1">
          <mxGeometry width="50" height="50" relative="1" as="geometry">
            <mxPoint x="50" y="70" as="sourcePoint" />
            <mxPoint x="59.60000000000002" y="70" as="targetPoint" />
          </mxGeometry>
        </mxCell>
        <mxCell id="fRFriNabQBI0lwTO-5E6-47" style="edgeStyle=orthogonalEdgeStyle;rounded=0;orthogonalLoop=1;jettySize=auto;html=1;entryX=0;entryY=0.5;entryDx=0;entryDy=0;" parent="1" source="YeN5vL-DaQQFCyyVUgX1-5" target="YeN5vL-DaQQFCyyVUgX1-138" edge="1">
          <mxGeometry relative="1" as="geometry">
            <Array as="points">
              <mxPoint x="60" y="65" />
            </Array>
          </mxGeometry>
        </mxCell>
        <mxCell id="YeN5vL-DaQQFCyyVUgX1-5" value="&lt;p style=&quot;line-height: 100%; font-size: 9px;&quot;&gt;Start Of&lt;br&gt;Web Server&lt;/p&gt;" style="ellipse;whiteSpace=wrap;html=1;labelPosition=center;verticalLabelPosition=middle;align=center;verticalAlign=middle;fontSize=9;" parent="1" vertex="1">
          <mxGeometry x="29.50999999999999" y="20" width="60" height="30" as="geometry" />
        </mxCell>
        <mxCell id="YeN5vL-DaQQFCyyVUgX1-162" style="edgeStyle=orthogonalEdgeStyle;rounded=0;orthogonalLoop=1;jettySize=auto;html=1;entryX=0.5;entryY=0;entryDx=0;entryDy=0;" parent="1" source="YeN5vL-DaQQFCyyVUgX1-7" target="YeN5vL-DaQQFCyyVUgX1-161" edge="1">
          <mxGeometry relative="1" as="geometry" />
        </mxCell>
        <mxCell id="YeN5vL-DaQQFCyyVUgX1-7" value="Connecting Hub" style="rounded=0;whiteSpace=wrap;html=1;" parent="1" vertex="1">
          <mxGeometry x="459.6400000000001" y="450" width="70" height="30" as="geometry" />
        </mxCell>
        <mxCell id="YeN5vL-DaQQFCyyVUgX1-151" value="Yes" style="edgeStyle=orthogonalEdgeStyle;rounded=0;orthogonalLoop=1;jettySize=auto;html=1;entryX=0.5;entryY=0;entryDx=0;entryDy=0;" parent="1" source="YeN5vL-DaQQFCyyVUgX1-56" target="YeN5vL-DaQQFCyyVUgX1-85" edge="1">
          <mxGeometry relative="1" as="geometry">
            <mxPoint x="59.510000000000105" y="290" as="targetPoint" />
          </mxGeometry>
        </mxCell>
        <mxCell id="YeN5vL-DaQQFCyyVUgX1-152" value="No" style="edgeStyle=orthogonalEdgeStyle;rounded=0;orthogonalLoop=1;jettySize=auto;html=1;entryX=0;entryY=0.5;entryDx=0;entryDy=0;exitX=0;exitY=0.5;exitDx=0;exitDy=0;" parent="1" source="YeN5vL-DaQQFCyyVUgX1-56" target="YeN5vL-DaQQFCyyVUgX1-57" edge="1">
          <mxGeometry relative="1" as="geometry">
            <mxPoint x="29.600000000000023" y="85" as="targetPoint" />
            <Array as="points">
              <mxPoint x="10" y="220" />
              <mxPoint x="10" y="120" />
            </Array>
          </mxGeometry>
        </mxCell>
        <mxCell id="YeN5vL-DaQQFCyyVUgX1-56" value="&lt;span style=&quot;font-size: 8px;&quot;&gt;Is MQTT Client Inited?&lt;/span&gt;" style="rhombus;whiteSpace=wrap;html=1;fillColor=#b1ddf0;strokeColor=#10739e;fontSize=8;" parent="1" vertex="1">
          <mxGeometry x="27.049999999999997" y="190" width="65.09" height="60" as="geometry" />
        </mxCell>
        <mxCell id="YeN5vL-DaQQFCyyVUgX1-62" style="edgeStyle=orthogonalEdgeStyle;rounded=0;orthogonalLoop=1;jettySize=auto;html=1;exitX=1;exitY=0.5;exitDx=0;exitDy=0;entryX=0;entryY=0.5;entryDx=0;entryDy=0;dashed=1;fillColor=#f8cecc;strokeColor=#b85450;" parent="1" source="YeN5vL-DaQQFCyyVUgX1-57" target="YeN5vL-DaQQFCyyVUgX1-61" edge="1">
          <mxGeometry relative="1" as="geometry" />
        </mxCell>
        <mxCell id="YeN5vL-DaQQFCyyVUgX1-150" style="edgeStyle=orthogonalEdgeStyle;rounded=0;orthogonalLoop=1;jettySize=auto;html=1;entryX=0.5;entryY=0;entryDx=0;entryDy=0;" parent="1" source="YeN5vL-DaQQFCyyVUgX1-57" target="YeN5vL-DaQQFCyyVUgX1-56" edge="1">
          <mxGeometry relative="1" as="geometry" />
        </mxCell>
        <mxCell id="YeN5vL-DaQQFCyyVUgX1-57" value="&lt;font style=&quot;font-size: 10px;&quot;&gt;Create MQTT Connection Async Service&lt;/font&gt;" style="rounded=0;whiteSpace=wrap;html=1;fillColor=#fff2cc;strokeColor=#d6b656;" parent="1" vertex="1">
          <mxGeometry x="19.509999999999998" y="100" width="80" height="40" as="geometry" />
        </mxCell>
        <mxCell id="YeN5vL-DaQQFCyyVUgX1-60" value="MQTT Connection Service" style="ellipse;whiteSpace=wrap;html=1;aspect=fixed;fillColor=#dae8fc;strokeColor=#6c8ebf;align=center;fontSize=10;" parent="1" vertex="1">
          <mxGeometry x="399.6000000000001" y="80" width="40" height="40" as="geometry" />
        </mxCell>
        <mxCell id="YeN5vL-DaQQFCyyVUgX1-65" style="edgeStyle=orthogonalEdgeStyle;rounded=0;orthogonalLoop=1;jettySize=auto;html=1;exitX=1;exitY=0.5;exitDx=0;exitDy=0;entryX=0;entryY=0.5;entryDx=0;entryDy=0;" parent="1" source="YeN5vL-DaQQFCyyVUgX1-61" target="YeN5vL-DaQQFCyyVUgX1-64" edge="1">
          <mxGeometry relative="1" as="geometry" />
        </mxCell>
        <mxCell id="YeN5vL-DaQQFCyyVUgX1-61" value="Start" style="ellipse;whiteSpace=wrap;html=1;fillColor=#fad7ac;strokeColor=#b46504;" parent="1" vertex="1">
          <mxGeometry x="139.6" y="95" width="50" height="30" as="geometry" />
        </mxCell>
        <mxCell id="YeN5vL-DaQQFCyyVUgX1-68" style="edgeStyle=orthogonalEdgeStyle;rounded=0;orthogonalLoop=1;jettySize=auto;html=1;entryX=0;entryY=0.5;entryDx=0;entryDy=0;" parent="1" source="YeN5vL-DaQQFCyyVUgX1-64" target="YeN5vL-DaQQFCyyVUgX1-67" edge="1">
          <mxGeometry relative="1" as="geometry" />
        </mxCell>
        <mxCell id="YeN5vL-DaQQFCyyVUgX1-64" value="Building MQTT Options Data" style="rounded=0;whiteSpace=wrap;html=1;fontSize=10;" parent="1" vertex="1">
          <mxGeometry x="209.6" y="95" width="70" height="30" as="geometry" />
        </mxCell>
        <mxCell id="YeN5vL-DaQQFCyyVUgX1-72" value="No" style="edgeStyle=orthogonalEdgeStyle;rounded=0;orthogonalLoop=1;jettySize=auto;html=1;entryX=0.5;entryY=1;entryDx=0;entryDy=0;" parent="1" source="YeN5vL-DaQQFCyyVUgX1-66" target="YeN5vL-DaQQFCyyVUgX1-67" edge="1">
          <mxGeometry relative="1" as="geometry">
            <mxPoint x="329.6" y="140" as="targetPoint" />
            <Array as="points">
              <mxPoint x="334.6" y="170" />
            </Array>
          </mxGeometry>
        </mxCell>
        <mxCell id="YeN5vL-DaQQFCyyVUgX1-73" value="Yes" style="edgeStyle=orthogonalEdgeStyle;rounded=0;orthogonalLoop=1;jettySize=auto;html=1;entryX=1;entryY=0.5;entryDx=0;entryDy=0;" parent="1" source="YeN5vL-DaQQFCyyVUgX1-66" target="YeN5vL-DaQQFCyyVUgX1-74" edge="1">
          <mxGeometry relative="1" as="geometry">
            <mxPoint x="392.6" y="240" as="targetPoint" />
          </mxGeometry>
        </mxCell>
        <mxCell id="YeN5vL-DaQQFCyyVUgX1-66" value="&lt;span style=&quot;font-size: 8px;&quot;&gt;Is MQTT client connected to Broker?&lt;/span&gt;" style="rhombus;whiteSpace=wrap;html=1;fillColor=#b1ddf0;strokeColor=#10739e;" parent="1" vertex="1">
          <mxGeometry x="359.6" y="137.5" width="66" height="65" as="geometry" />
        </mxCell>
        <mxCell id="YeN5vL-DaQQFCyyVUgX1-67" value="Connect to MQTT Broker" style="rounded=0;whiteSpace=wrap;html=1;fontSize=10;" parent="1" vertex="1">
          <mxGeometry x="299.6" y="95" width="70" height="30" as="geometry" />
        </mxCell>
        <mxCell id="YeN5vL-DaQQFCyyVUgX1-70" style="edgeStyle=orthogonalEdgeStyle;rounded=0;orthogonalLoop=1;jettySize=auto;html=1;exitX=1;exitY=0.5;exitDx=0;exitDy=0;entryX=0.5;entryY=0;entryDx=0;entryDy=0;" parent="1" source="YeN5vL-DaQQFCyyVUgX1-67" target="YeN5vL-DaQQFCyyVUgX1-66" edge="1">
          <mxGeometry relative="1" as="geometry">
            <mxPoint x="389.6" y="130" as="targetPoint" />
          </mxGeometry>
        </mxCell>
        <mxCell id="YeN5vL-DaQQFCyyVUgX1-76" style="edgeStyle=orthogonalEdgeStyle;rounded=0;orthogonalLoop=1;jettySize=auto;html=1;entryX=1;entryY=0.5;entryDx=0;entryDy=0;" parent="1" source="YeN5vL-DaQQFCyyVUgX1-74" target="YeN5vL-DaQQFCyyVUgX1-75" edge="1">
          <mxGeometry relative="1" as="geometry" />
        </mxCell>
        <mxCell id="YeN5vL-DaQQFCyyVUgX1-74" value="Subscribe Topics" style="rounded=0;whiteSpace=wrap;html=1;fontSize=10;" parent="1" vertex="1">
          <mxGeometry x="299.6" y="210" width="70" height="30" as="geometry" />
        </mxCell>
        <mxCell id="YeN5vL-DaQQFCyyVUgX1-122" style="edgeStyle=orthogonalEdgeStyle;rounded=0;orthogonalLoop=1;jettySize=auto;html=1;exitX=0;exitY=0.5;exitDx=0;exitDy=0;entryX=1;entryY=0.5;entryDx=0;entryDy=0;" parent="1" source="YeN5vL-DaQQFCyyVUgX1-75" target="mmhwODqLmMMb7IR2d1qR-7" edge="1">
          <mxGeometry relative="1" as="geometry">
            <mxPoint x="185" y="240" as="targetPoint" />
          </mxGeometry>
        </mxCell>
        <mxCell id="YeN5vL-DaQQFCyyVUgX1-75" value="Listen To Topics" style="rounded=0;whiteSpace=wrap;html=1;fontSize=10;" parent="1" vertex="1">
          <mxGeometry x="209.6" y="210" width="70" height="30" as="geometry" />
        </mxCell>
        <mxCell id="YeN5vL-DaQQFCyyVUgX1-105" style="edgeStyle=orthogonalEdgeStyle;rounded=0;orthogonalLoop=1;jettySize=auto;html=1;exitX=1;exitY=0.5;exitDx=0;exitDy=0;entryX=0;entryY=0.5;entryDx=0;entryDy=0;dashed=1;fillColor=#f8cecc;strokeColor=#b85450;" parent="1" source="YeN5vL-DaQQFCyyVUgX1-79" target="YeN5vL-DaQQFCyyVUgX1-106" edge="1">
          <mxGeometry relative="1" as="geometry">
            <mxPoint x="119.6" y="540" as="targetPoint" />
          </mxGeometry>
        </mxCell>
        <mxCell id="YeN5vL-DaQQFCyyVUgX1-144" value="Yes" style="edgeStyle=orthogonalEdgeStyle;rounded=0;orthogonalLoop=1;jettySize=auto;html=1;entryX=0.5;entryY=0;entryDx=0;entryDy=0;" parent="1" source="YeN5vL-DaQQFCyyVUgX1-79" target="YeN5vL-DaQQFCyyVUgX1-139" edge="1">
          <mxGeometry relative="1" as="geometry" />
        </mxCell>
        <mxCell id="YeN5vL-DaQQFCyyVUgX1-79" value="&lt;font style=&quot;font-size: 10px;&quot;&gt;Create SignalR Hub Async Service&lt;/font&gt;" style="rounded=0;whiteSpace=wrap;html=1;fillColor=#fff2cc;strokeColor=#d6b656;" parent="1" vertex="1">
          <mxGeometry x="19.509999999999994" y="501.25" width="80" height="40" as="geometry" />
        </mxCell>
        <mxCell id="YeN5vL-DaQQFCyyVUgX1-91" style="edgeStyle=orthogonalEdgeStyle;rounded=0;orthogonalLoop=1;jettySize=auto;html=1;entryX=0;entryY=0.5;entryDx=0;entryDy=0;dashed=1;fillColor=#f8cecc;strokeColor=#b85450;" parent="1" source="YeN5vL-DaQQFCyyVUgX1-85" target="YeN5vL-DaQQFCyyVUgX1-90" edge="1">
          <mxGeometry relative="1" as="geometry" />
        </mxCell>
        <mxCell id="YeN5vL-DaQQFCyyVUgX1-148" style="edgeStyle=orthogonalEdgeStyle;rounded=0;orthogonalLoop=1;jettySize=auto;html=1;entryX=0.5;entryY=0;entryDx=0;entryDy=0;" parent="1" source="YeN5vL-DaQQFCyyVUgX1-85" target="YeN5vL-DaQQFCyyVUgX1-146" edge="1">
          <mxGeometry relative="1" as="geometry" />
        </mxCell>
        <mxCell id="YeN5vL-DaQQFCyyVUgX1-85" value="Create Message Separation Async Service" style="rounded=0;whiteSpace=wrap;html=1;fillColor=#fff2cc;strokeColor=#d6b656;fontSize=10;" parent="1" vertex="1">
          <mxGeometry x="19.509999999999998" y="300" width="80" height="40" as="geometry" />
        </mxCell>
        <mxCell id="YeN5vL-DaQQFCyyVUgX1-92" style="edgeStyle=orthogonalEdgeStyle;rounded=0;orthogonalLoop=1;jettySize=auto;html=1;entryX=0;entryY=0.5;entryDx=0;entryDy=0;" parent="1" source="YeN5vL-DaQQFCyyVUgX1-90" target="YeN5vL-DaQQFCyyVUgX1-93" edge="1">
          <mxGeometry relative="1" as="geometry">
            <mxPoint x="209.6" y="335" as="targetPoint" />
          </mxGeometry>
        </mxCell>
        <mxCell id="YeN5vL-DaQQFCyyVUgX1-90" value="Start" style="ellipse;whiteSpace=wrap;html=1;fillColor=#fad7ac;strokeColor=#b46504;" parent="1" vertex="1">
          <mxGeometry x="139.6" y="320" width="50" height="30" as="geometry" />
        </mxCell>
        <mxCell id="YeN5vL-DaQQFCyyVUgX1-97" value="Is Location" style="edgeStyle=orthogonalEdgeStyle;rounded=0;orthogonalLoop=1;jettySize=auto;html=1;entryX=0.5;entryY=0;entryDx=0;entryDy=0;exitX=0.25;exitY=1;exitDx=0;exitDy=0;" parent="1" source="YeN5vL-DaQQFCyyVUgX1-93" target="YeN5vL-DaQQFCyyVUgX1-94" edge="1">
          <mxGeometry relative="1" as="geometry" />
        </mxCell>
        <mxCell id="YeN5vL-DaQQFCyyVUgX1-99" value="Not Location" style="edgeStyle=orthogonalEdgeStyle;rounded=0;orthogonalLoop=1;jettySize=auto;html=1;exitX=1;exitY=0.5;exitDx=0;exitDy=0;entryX=0.5;entryY=0;entryDx=0;entryDy=0;" parent="1" source="YeN5vL-DaQQFCyyVUgX1-93" target="YeN5vL-DaQQFCyyVUgX1-98" edge="1">
          <mxGeometry relative="1" as="geometry" />
        </mxCell>
        <mxCell id="YeN5vL-DaQQFCyyVUgX1-93" value="Message Separation" style="rounded=0;whiteSpace=wrap;html=1;fontSize=10;" parent="1" vertex="1">
          <mxGeometry x="209.6" y="320" width="70" height="30" as="geometry" />
        </mxCell>
        <mxCell id="YeN5vL-DaQQFCyyVUgX1-103" style="edgeStyle=orthogonalEdgeStyle;rounded=0;orthogonalLoop=1;jettySize=auto;html=1;exitX=1;exitY=0.5;exitDx=0;exitDy=0;entryX=0.5;entryY=0;entryDx=0;entryDy=0;fillColor=#d5e8d4;strokeColor=#82b366;dashed=1;" parent="1" source="YeN5vL-DaQQFCyyVUgX1-94" target="YeN5vL-DaQQFCyyVUgX1-109" edge="1">
          <mxGeometry relative="1" as="geometry">
            <mxPoint x="229.6" y="440" as="targetPoint" />
          </mxGeometry>
        </mxCell>
        <mxCell id="YeN5vL-DaQQFCyyVUgX1-94" value="Location Data" style="rounded=0;whiteSpace=wrap;html=1;fontSize=10;" parent="1" vertex="1">
          <mxGeometry x="139.6" y="390" width="70" height="30" as="geometry" />
        </mxCell>
        <mxCell id="YeN5vL-DaQQFCyyVUgX1-98" value="Save Log" style="rounded=0;whiteSpace=wrap;html=1;fontSize=10;" parent="1" vertex="1">
          <mxGeometry x="279.6" y="390" width="70" height="30" as="geometry" />
        </mxCell>
        <mxCell id="YeN5vL-DaQQFCyyVUgX1-102" value="Message Separation Service" style="ellipse;whiteSpace=wrap;html=1;aspect=fixed;fillColor=#dae8fc;strokeColor=#6c8ebf;align=center;fontSize=10;" parent="1" vertex="1">
          <mxGeometry x="319.6000000000001" y="280" width="40" height="40" as="geometry" />
        </mxCell>
        <mxCell id="YeN5vL-DaQQFCyyVUgX1-124" style="edgeStyle=orthogonalEdgeStyle;rounded=0;orthogonalLoop=1;jettySize=auto;html=1;entryX=0;entryY=0.5;entryDx=0;entryDy=0;" parent="1" source="YeN5vL-DaQQFCyyVUgX1-106" target="YeN5vL-DaQQFCyyVUgX1-123" edge="1">
          <mxGeometry relative="1" as="geometry" />
        </mxCell>
        <mxCell id="YeN5vL-DaQQFCyyVUgX1-106" value="Start" style="ellipse;whiteSpace=wrap;html=1;fillColor=#fad7ac;strokeColor=#b46504;" parent="1" vertex="1">
          <mxGeometry x="139.6" y="515" width="50" height="30" as="geometry" />
        </mxCell>
        <mxCell id="fRFriNabQBI0lwTO-5E6-3" style="edgeStyle=orthogonalEdgeStyle;rounded=0;orthogonalLoop=1;jettySize=auto;html=1;" parent="1" source="YeN5vL-DaQQFCyyVUgX1-109" edge="1">
          <mxGeometry relative="1" as="geometry">
            <mxPoint x="290" y="530" as="targetPoint" />
            <Array as="points">
              <mxPoint x="290" y="465" />
            </Array>
          </mxGeometry>
        </mxCell>
        <mxCell id="YeN5vL-DaQQFCyyVUgX1-109" value="Received Location" style="rounded=0;whiteSpace=wrap;html=1;fontSize=10;fillColor=#e1d5e7;strokeColor=#9673a6;" parent="1" vertex="1">
          <mxGeometry x="209.6" y="450" width="70" height="30" as="geometry" />
        </mxCell>
        <mxCell id="YeN5vL-DaQQFCyyVUgX1-131" style="edgeStyle=orthogonalEdgeStyle;rounded=0;orthogonalLoop=1;jettySize=auto;html=1;entryX=0;entryY=0.5;entryDx=0;entryDy=0;" parent="1" source="YeN5vL-DaQQFCyyVUgX1-123" target="YeN5vL-DaQQFCyyVUgX1-128" edge="1">
          <mxGeometry relative="1" as="geometry" />
        </mxCell>
        <mxCell id="YeN5vL-DaQQFCyyVUgX1-123" value="Created Hub" style="rounded=0;whiteSpace=wrap;html=1;fontSize=10;" parent="1" vertex="1">
          <mxGeometry x="209.6" y="515" width="70" height="30" as="geometry" />
        </mxCell>
        <mxCell id="fRFriNabQBI0lwTO-5E6-5" style="edgeStyle=orthogonalEdgeStyle;rounded=0;orthogonalLoop=1;jettySize=auto;html=1;entryX=0;entryY=0.5;entryDx=0;entryDy=0;fillColor=#f8cecc;strokeColor=#b85450;" parent="1" source="YeN5vL-DaQQFCyyVUgX1-126" target="YeN5vL-DaQQFCyyVUgX1-164" edge="1">
          <mxGeometry relative="1" as="geometry">
            <mxPoint x="430" y="620" as="targetPoint" />
          </mxGeometry>
        </mxCell>
        <mxCell id="YeN5vL-DaQQFCyyVUgX1-126" value="Publish Message" style="rounded=0;whiteSpace=wrap;html=1;fontSize=10;" parent="1" vertex="1">
          <mxGeometry x="260" y="597.5" width="70" height="35" as="geometry" />
        </mxCell>
        <mxCell id="fRFriNabQBI0lwTO-5E6-2" value="No" style="edgeStyle=orthogonalEdgeStyle;rounded=0;orthogonalLoop=1;jettySize=auto;html=1;" parent="1" edge="1">
          <mxGeometry relative="1" as="geometry">
            <mxPoint x="300" y="530" as="targetPoint" />
            <mxPoint x="339.2111111111111" y="507.51094276094284" as="sourcePoint" />
            <Array as="points">
              <mxPoint x="339.6" y="490" />
              <mxPoint x="299.6" y="490" />
            </Array>
          </mxGeometry>
        </mxCell>
        <mxCell id="fRFriNabQBI0lwTO-5E6-4" value="Yes" style="edgeStyle=orthogonalEdgeStyle;rounded=0;orthogonalLoop=1;jettySize=auto;html=1;entryX=0.5;entryY=0;entryDx=0;entryDy=0;" parent="1" source="YeN5vL-DaQQFCyyVUgX1-128" target="YeN5vL-DaQQFCyyVUgX1-126" edge="1">
          <mxGeometry relative="1" as="geometry">
            <Array as="points">
              <mxPoint x="340" y="580" />
              <mxPoint x="295" y="580" />
            </Array>
          </mxGeometry>
        </mxCell>
        <mxCell id="YeN5vL-DaQQFCyyVUgX1-128" value="Are there any messages waiting to be delivered?" style="rhombus;whiteSpace=wrap;html=1;fillColor=#b1ddf0;strokeColor=#10739e;fontSize=9;" parent="1" vertex="1">
          <mxGeometry x="306.6" y="497.5" width="66" height="65" as="geometry" />
        </mxCell>
        <mxCell id="YeN5vL-DaQQFCyyVUgX1-156" style="edgeStyle=orthogonalEdgeStyle;rounded=0;orthogonalLoop=1;jettySize=auto;html=1;entryX=0.5;entryY=0;entryDx=0;entryDy=0;" parent="1" source="YeN5vL-DaQQFCyyVUgX1-138" target="YeN5vL-DaQQFCyyVUgX1-155" edge="1">
          <mxGeometry relative="1" as="geometry" />
        </mxCell>
        <mxCell id="YeN5vL-DaQQFCyyVUgX1-138" value="&amp;nbsp;Launched Web App" style="rounded=0;whiteSpace=wrap;html=1;fillColor=#d5e8d4;strokeColor=#82b366;" parent="1" vertex="1">
          <mxGeometry x="513.96" y="50" width="60" height="30" as="geometry" />
        </mxCell>
        <mxCell id="YeN5vL-DaQQFCyyVUgX1-145" value="No" style="edgeStyle=orthogonalEdgeStyle;rounded=0;orthogonalLoop=1;jettySize=auto;html=1;entryX=0;entryY=0.5;entryDx=0;entryDy=0;exitX=0;exitY=0.5;exitDx=0;exitDy=0;" parent="1" source="YeN5vL-DaQQFCyyVUgX1-139" target="YeN5vL-DaQQFCyyVUgX1-79" edge="1">
          <mxGeometry relative="1" as="geometry">
            <mxPoint x="29.600000000000023" y="525.0000000000001" as="targetPoint" />
            <mxPoint x="9.6" y="690.6666782924107" as="sourcePoint" />
            <Array as="points">
              <mxPoint x="10" y="620" />
              <mxPoint x="10" y="521" />
            </Array>
          </mxGeometry>
        </mxCell>
        <mxCell id="YeN5vL-DaQQFCyyVUgX1-139" value="&lt;span style=&quot;font-size: 8px;&quot;&gt;Is Hub Initied?&lt;/span&gt;" style="rhombus;whiteSpace=wrap;html=1;fillColor=#b1ddf0;strokeColor=#10739e;fontSize=8;" parent="1" vertex="1">
          <mxGeometry x="27.050000000000015" y="590" width="65.09" height="60" as="geometry" />
        </mxCell>
        <mxCell id="YeN5vL-DaQQFCyyVUgX1-147" value="Yes" style="edgeStyle=orthogonalEdgeStyle;rounded=0;orthogonalLoop=1;jettySize=auto;html=1;entryX=0.5;entryY=0;entryDx=0;entryDy=0;" parent="1" source="YeN5vL-DaQQFCyyVUgX1-146" target="YeN5vL-DaQQFCyyVUgX1-79" edge="1">
          <mxGeometry relative="1" as="geometry">
            <mxPoint x="60" y="560" as="targetPoint" />
          </mxGeometry>
        </mxCell>
        <mxCell id="YeN5vL-DaQQFCyyVUgX1-153" value="No" style="edgeStyle=orthogonalEdgeStyle;rounded=0;orthogonalLoop=1;jettySize=auto;html=1;entryX=0;entryY=0.5;entryDx=0;entryDy=0;exitX=0;exitY=0.5;exitDx=0;exitDy=0;" parent="1" source="YeN5vL-DaQQFCyyVUgX1-146" target="YeN5vL-DaQQFCyyVUgX1-85" edge="1">
          <mxGeometry relative="1" as="geometry">
            <mxPoint x="29.510000000000105" y="305" as="targetPoint" />
            <Array as="points">
              <mxPoint x="10" y="420" />
              <mxPoint x="10" y="320" />
            </Array>
          </mxGeometry>
        </mxCell>
        <mxCell id="YeN5vL-DaQQFCyyVUgX1-146" value="&lt;span style=&quot;font-size: 8px;&quot;&gt;Is Message Service Inited?&lt;/span&gt;" style="rhombus;whiteSpace=wrap;html=1;fillColor=#b1ddf0;strokeColor=#10739e;fontSize=8;" parent="1" vertex="1">
          <mxGeometry x="26.960000000000015" y="390" width="65.09" height="60" as="geometry" />
        </mxCell>
        <mxCell id="fRFriNabQBI0lwTO-5E6-7" style="edgeStyle=orthogonalEdgeStyle;rounded=0;orthogonalLoop=1;jettySize=auto;html=1;entryX=0.5;entryY=0;entryDx=0;entryDy=0;" parent="1" source="YeN5vL-DaQQFCyyVUgX1-155" target="fRFriNabQBI0lwTO-5E6-6" edge="1">
          <mxGeometry relative="1" as="geometry" />
        </mxCell>
        <mxCell id="YeN5vL-DaQQFCyyVUgX1-155" value="&lt;font style=&quot;font-size: 10px;&quot;&gt;Created Web Page&lt;/font&gt;" style="rounded=0;whiteSpace=wrap;html=1;fillColor=#fff2cc;strokeColor=#d6b656;" parent="1" vertex="1">
          <mxGeometry x="504.05" y="110" width="80" height="40" as="geometry" />
        </mxCell>
        <mxCell id="YeN5vL-DaQQFCyyVUgX1-159" style="edgeStyle=orthogonalEdgeStyle;rounded=0;orthogonalLoop=1;jettySize=auto;html=1;entryX=0.5;entryY=0;entryDx=0;entryDy=0;" parent="1" source="YeN5vL-DaQQFCyyVUgX1-157" target="YeN5vL-DaQQFCyyVUgX1-7" edge="1">
          <mxGeometry relative="1" as="geometry" />
        </mxCell>
        <mxCell id="YeN5vL-DaQQFCyyVUgX1-157" value="Created SignalR Client" style="rounded=0;whiteSpace=wrap;html=1;fillColor=#d5e8d4;strokeColor=#82b366;fontSize=10;" parent="1" vertex="1">
          <mxGeometry x="459.6400000000001" y="390" width="70" height="30" as="geometry" />
        </mxCell>
        <mxCell id="YeN5vL-DaQQFCyyVUgX1-163" value="No" style="edgeStyle=orthogonalEdgeStyle;rounded=0;orthogonalLoop=1;jettySize=auto;html=1;entryX=0;entryY=0.5;entryDx=0;entryDy=0;exitX=0;exitY=0.5;exitDx=0;exitDy=0;" parent="1" source="YeN5vL-DaQQFCyyVUgX1-161" target="YeN5vL-DaQQFCyyVUgX1-7" edge="1">
          <mxGeometry relative="1" as="geometry" />
        </mxCell>
        <mxCell id="YeN5vL-DaQQFCyyVUgX1-165" value="Yes" style="edgeStyle=orthogonalEdgeStyle;rounded=0;orthogonalLoop=1;jettySize=auto;html=1;entryX=0.5;entryY=0;entryDx=0;entryDy=0;" parent="1" source="YeN5vL-DaQQFCyyVUgX1-161" target="YeN5vL-DaQQFCyyVUgX1-164" edge="1">
          <mxGeometry relative="1" as="geometry" />
        </mxCell>
        <mxCell id="YeN5vL-DaQQFCyyVUgX1-161" value="&lt;span style=&quot;font-size: 8px;&quot;&gt;Connection Successful&lt;/span&gt;" style="rhombus;whiteSpace=wrap;html=1;fillColor=#b1ddf0;strokeColor=#10739e;fontSize=8;" parent="1" vertex="1">
          <mxGeometry x="462.1000000000001" y="510" width="65.09" height="60" as="geometry" />
        </mxCell>
        <mxCell id="fRFriNabQBI0lwTO-5E6-32" style="edgeStyle=orthogonalEdgeStyle;rounded=0;orthogonalLoop=1;jettySize=auto;html=1;entryX=0;entryY=0.5;entryDx=0;entryDy=0;" parent="1" source="YeN5vL-DaQQFCyyVUgX1-164" target="fRFriNabQBI0lwTO-5E6-29" edge="1">
          <mxGeometry relative="1" as="geometry" />
        </mxCell>
        <mxCell id="YeN5vL-DaQQFCyyVUgX1-164" value="Subscribe Hub" style="rounded=0;whiteSpace=wrap;html=1;fontSize=10;" parent="1" vertex="1">
          <mxGeometry x="459.64000000000016" y="600" width="70" height="30" as="geometry" />
        </mxCell>
        <mxCell id="m9AO_DabK-JMe2n2pqAo-1" value="Hub Service" style="ellipse;whiteSpace=wrap;html=1;aspect=fixed;fillColor=#dae8fc;strokeColor=#6c8ebf;align=center;fontSize=10;" parent="1" vertex="1">
          <mxGeometry x="359.6000000000001" y="461.25" width="40" height="40" as="geometry" />
        </mxCell>
        <mxCell id="mmhwODqLmMMb7IR2d1qR-11" value="Yes" style="edgeStyle=orthogonalEdgeStyle;rounded=0;orthogonalLoop=1;jettySize=auto;html=1;exitX=0.5;exitY=1;exitDx=0;exitDy=0;fillColor=#d5e8d4;strokeColor=#82b366;dashed=1;" parent="1" edge="1">
          <mxGeometry relative="1" as="geometry">
            <mxPoint x="156.60000000000002" y="258.74999999999994" as="sourcePoint" />
            <mxPoint x="244.5967741935484" y="321.25000000000006" as="targetPoint" />
            <Array as="points">
              <mxPoint x="157" y="290" />
              <mxPoint x="245" y="290" />
            </Array>
          </mxGeometry>
        </mxCell>
        <mxCell id="mmhwODqLmMMb7IR2d1qR-14" value="No" style="edgeStyle=orthogonalEdgeStyle;rounded=0;orthogonalLoop=1;jettySize=auto;html=1;entryX=0.5;entryY=0;entryDx=0;entryDy=0;" parent="1" source="mmhwODqLmMMb7IR2d1qR-7" target="YeN5vL-DaQQFCyyVUgX1-75" edge="1">
          <mxGeometry relative="1" as="geometry">
            <mxPoint x="250" y="160" as="targetPoint" />
            <Array as="points">
              <mxPoint x="157" y="180" />
              <mxPoint x="245" y="180" />
              <mxPoint x="245" y="210" />
            </Array>
          </mxGeometry>
        </mxCell>
        <mxCell id="mmhwODqLmMMb7IR2d1qR-7" value="&lt;span style=&quot;font-size: 8px;&quot;&gt;Is There Any Message?&lt;/span&gt;" style="rhombus;whiteSpace=wrap;html=1;fillColor=#b1ddf0;strokeColor=#10739e;" parent="1" vertex="1">
          <mxGeometry x="123.60000000000002" y="192.5" width="66" height="65" as="geometry" />
        </mxCell>
        <mxCell id="mmhwODqLmMMb7IR2d1qR-13" value="" style="endArrow=classic;html=1;rounded=0;entryX=0.5;entryY=1;entryDx=0;entryDy=0;" parent="1" target="YeN5vL-DaQQFCyyVUgX1-75" edge="1">
          <mxGeometry width="50" height="50" relative="1" as="geometry">
            <mxPoint x="210" y="290" as="sourcePoint" />
            <mxPoint x="269.6" y="260" as="targetPoint" />
          </mxGeometry>
        </mxCell>
        <mxCell id="mmhwODqLmMMb7IR2d1qR-16" value="" style="endArrow=classic;html=1;rounded=0;" parent="1" edge="1">
          <mxGeometry width="50" height="50" relative="1" as="geometry">
            <mxPoint x="306.6" y="578.75" as="sourcePoint" />
            <mxPoint x="290" y="530" as="targetPoint" />
          </mxGeometry>
        </mxCell>
        <mxCell id="fRFriNabQBI0lwTO-5E6-6" value="User Login" style="rounded=0;whiteSpace=wrap;html=1;" parent="1" vertex="1">
          <mxGeometry x="508.96" y="180" width="70" height="30" as="geometry" />
        </mxCell>
        <mxCell id="fRFriNabQBI0lwTO-5E6-8" value="Authenticate" style="rounded=0;whiteSpace=wrap;html=1;" parent="1" vertex="1">
          <mxGeometry x="509.05" y="240" width="70" height="30" as="geometry" />
        </mxCell>
        <mxCell id="fRFriNabQBI0lwTO-5E6-9" style="edgeStyle=orthogonalEdgeStyle;rounded=0;orthogonalLoop=1;jettySize=auto;html=1;entryX=0.5;entryY=0;entryDx=0;entryDy=0;" parent="1" source="fRFriNabQBI0lwTO-5E6-6" target="fRFriNabQBI0lwTO-5E6-8" edge="1">
          <mxGeometry relative="1" as="geometry">
            <mxPoint x="544.45" y="230" as="targetPoint" />
          </mxGeometry>
        </mxCell>
        <mxCell id="fRFriNabQBI0lwTO-5E6-11" style="edgeStyle=orthogonalEdgeStyle;rounded=0;orthogonalLoop=1;jettySize=auto;html=1;entryX=0.5;entryY=0;entryDx=0;entryDy=0;" parent="1" source="fRFriNabQBI0lwTO-5E6-8" target="fRFriNabQBI0lwTO-5E6-16" edge="1">
          <mxGeometry relative="1" as="geometry" />
        </mxCell>
        <mxCell id="fRFriNabQBI0lwTO-5E6-19" value="No" style="edgeStyle=orthogonalEdgeStyle;rounded=0;orthogonalLoop=1;jettySize=auto;html=1;entryX=0;entryY=0.5;entryDx=0;entryDy=0;exitX=0;exitY=0.5;exitDx=0;exitDy=0;" parent="1" source="fRFriNabQBI0lwTO-5E6-16" target="fRFriNabQBI0lwTO-5E6-6" edge="1">
          <mxGeometry relative="1" as="geometry" />
        </mxCell>
        <mxCell id="fRFriNabQBI0lwTO-5E6-24" style="edgeStyle=orthogonalEdgeStyle;rounded=0;orthogonalLoop=1;jettySize=auto;html=1;entryX=0.5;entryY=0;entryDx=0;entryDy=0;" parent="1" source="fRFriNabQBI0lwTO-5E6-16" target="fRFriNabQBI0lwTO-5E6-23" edge="1">
          <mxGeometry relative="1" as="geometry" />
        </mxCell>
        <mxCell id="fRFriNabQBI0lwTO-5E6-16" value="Authenticate Successful" style="rhombus;whiteSpace=wrap;html=1;fillColor=#b1ddf0;strokeColor=#10739e;fontSize=8;" parent="1" vertex="1">
          <mxGeometry x="511.50000000000006" y="300" width="65.09" height="60" as="geometry" />
        </mxCell>
        <mxCell id="fRFriNabQBI0lwTO-5E6-21" value="Connecting Google Maps" style="rounded=0;whiteSpace=wrap;html=1;fontSize=11;" parent="1" vertex="1">
          <mxGeometry x="560" y="450" width="70" height="30" as="geometry" />
        </mxCell>
        <mxCell id="fRFriNabQBI0lwTO-5E6-25" style="edgeStyle=orthogonalEdgeStyle;rounded=0;orthogonalLoop=1;jettySize=auto;html=1;entryX=0.5;entryY=0;entryDx=0;entryDy=0;" parent="1" source="fRFriNabQBI0lwTO-5E6-23" target="fRFriNabQBI0lwTO-5E6-21" edge="1">
          <mxGeometry relative="1" as="geometry" />
        </mxCell>
        <mxCell id="fRFriNabQBI0lwTO-5E6-23" value="Created Google Maps" style="rounded=0;whiteSpace=wrap;html=1;fillColor=#d5e8d4;strokeColor=#82b366;fontSize=10;" parent="1" vertex="1">
          <mxGeometry x="560" y="390" width="70" height="30" as="geometry" />
        </mxCell>
        <mxCell id="fRFriNabQBI0lwTO-5E6-20" value="Yes" style="edgeStyle=orthogonalEdgeStyle;rounded=0;orthogonalLoop=1;jettySize=auto;html=1;entryX=0.5;entryY=0;entryDx=0;entryDy=0;" parent="1" source="fRFriNabQBI0lwTO-5E6-16" target="YeN5vL-DaQQFCyyVUgX1-157" edge="1">
          <mxGeometry x="-0.7482" relative="1" as="geometry">
            <mxPoint as="offset" />
          </mxGeometry>
        </mxCell>
        <mxCell id="fRFriNabQBI0lwTO-5E6-28" value="No" style="edgeStyle=orthogonalEdgeStyle;rounded=0;orthogonalLoop=1;jettySize=auto;html=1;entryX=1;entryY=0.5;entryDx=0;entryDy=0;exitX=1;exitY=0.5;exitDx=0;exitDy=0;" parent="1" source="fRFriNabQBI0lwTO-5E6-26" target="fRFriNabQBI0lwTO-5E6-21" edge="1">
          <mxGeometry relative="1" as="geometry" />
        </mxCell>
        <mxCell id="fRFriNabQBI0lwTO-5E6-33" style="edgeStyle=orthogonalEdgeStyle;rounded=0;orthogonalLoop=1;jettySize=auto;html=1;exitX=0.5;exitY=1;exitDx=0;exitDy=0;entryX=0.25;entryY=0;entryDx=0;entryDy=0;" parent="1" source="fRFriNabQBI0lwTO-5E6-26" target="fRFriNabQBI0lwTO-5E6-34" edge="1">
          <mxGeometry relative="1" as="geometry">
            <mxPoint x="700" y="590" as="targetPoint" />
            <Array as="points">
              <mxPoint x="595" y="590" />
              <mxPoint x="678" y="590" />
              <mxPoint x="678" y="600" />
            </Array>
          </mxGeometry>
        </mxCell>
        <mxCell id="fRFriNabQBI0lwTO-5E6-26" value="&lt;span style=&quot;font-size: 8px;&quot;&gt;Connection Successful&lt;/span&gt;" style="rhombus;whiteSpace=wrap;html=1;fillColor=#b1ddf0;strokeColor=#10739e;fontSize=8;" parent="1" vertex="1">
          <mxGeometry x="562.46" y="510" width="65.09" height="60" as="geometry" />
        </mxCell>
        <mxCell id="fRFriNabQBI0lwTO-5E6-27" style="edgeStyle=orthogonalEdgeStyle;rounded=0;orthogonalLoop=1;jettySize=auto;html=1;entryX=0.497;entryY=-0.052;entryDx=0;entryDy=0;entryPerimeter=0;" parent="1" source="fRFriNabQBI0lwTO-5E6-21" target="fRFriNabQBI0lwTO-5E6-26" edge="1">
          <mxGeometry relative="1" as="geometry" />
        </mxCell>
        <mxCell id="fRFriNabQBI0lwTO-5E6-29" value="Track Location In Google Maps" style="rounded=0;whiteSpace=wrap;html=1;fontSize=9;" parent="1" vertex="1">
          <mxGeometry x="560.0000000000001" y="600" width="70" height="30" as="geometry" />
        </mxCell>
        <mxCell id="fRFriNabQBI0lwTO-5E6-54" style="edgeStyle=orthogonalEdgeStyle;rounded=0;orthogonalLoop=1;jettySize=auto;html=1;entryX=0.5;entryY=1;entryDx=0;entryDy=0;exitX=0.75;exitY=0;exitDx=0;exitDy=0;" parent="1" source="fRFriNabQBI0lwTO-5E6-34" target="fRFriNabQBI0lwTO-5E6-52" edge="1">
          <mxGeometry relative="1" as="geometry">
            <Array as="points">
              <mxPoint x="710" y="600" />
            </Array>
          </mxGeometry>
        </mxCell>
        <mxCell id="fRFriNabQBI0lwTO-5E6-34" value="User Clicks &#39;Get History&#39; Button" style="rounded=0;whiteSpace=wrap;html=1;fontSize=9;" parent="1" vertex="1">
          <mxGeometry x="660.0000000000001" y="600" width="70" height="30" as="geometry" />
        </mxCell>
        <mxCell id="fRFriNabQBI0lwTO-5E6-31" value="Yes" style="edgeStyle=orthogonalEdgeStyle;rounded=0;orthogonalLoop=1;jettySize=auto;html=1;entryX=0.5;entryY=0;entryDx=0;entryDy=0;" parent="1" source="fRFriNabQBI0lwTO-5E6-26" target="fRFriNabQBI0lwTO-5E6-29" edge="1">
          <mxGeometry relative="1" as="geometry" />
        </mxCell>
        <mxCell id="fRFriNabQBI0lwTO-5E6-35" value="Cloud&amp;nbsp; &amp;nbsp; &amp;nbsp; &amp;nbsp; &amp;nbsp; &amp;nbsp; &amp;nbsp; &amp;nbsp; &amp;nbsp; &amp;nbsp;&amp;nbsp;&lt;br&gt;&lt;br&gt;&lt;br&gt;&lt;br&gt;" style="rounded=1;whiteSpace=wrap;html=1;dashed=1;movable=1;resizable=1;rotatable=1;deletable=1;editable=1;locked=0;connectable=1;strokeColor=#007FFF;fillColor=none;" parent="1" vertex="1">
          <mxGeometry x="645" y="10" width="160" height="215" as="geometry" />
        </mxCell>
        <mxCell id="fRFriNabQBI0lwTO-5E6-36" value="API&#39;S" style="rounded=0;whiteSpace=wrap;html=1;fontSize=9;" parent="1" vertex="1">
          <mxGeometry x="690.0000000000001" y="180" width="70" height="30" as="geometry" />
        </mxCell>
        <mxCell id="fRFriNabQBI0lwTO-5E6-40" value="" style="endArrow=classic;startArrow=classic;html=1;rounded=0;exitX=1;exitY=0.5;exitDx=0;exitDy=0;entryX=0.278;entryY=1.019;entryDx=0;entryDy=0;entryPerimeter=0;fillColor=#f8cecc;strokeColor=#b85450;" parent="1" source="fRFriNabQBI0lwTO-5E6-8" target="fRFriNabQBI0lwTO-5E6-36" edge="1">
          <mxGeometry width="50" height="50" relative="1" as="geometry">
            <mxPoint x="670" y="290" as="sourcePoint" />
            <mxPoint x="720" y="240" as="targetPoint" />
            <Array as="points">
              <mxPoint x="710" y="255" />
            </Array>
          </mxGeometry>
        </mxCell>
        <mxCell id="fRFriNabQBI0lwTO-5E6-42" value="" style="endArrow=classic;startArrow=classic;html=1;rounded=0;entryX=0.713;entryY=1.019;entryDx=0;entryDy=0;entryPerimeter=0;fillColor=#f8cecc;strokeColor=#b85450;exitX=1;exitY=0.5;exitDx=0;exitDy=0;" parent="1" source="fRFriNabQBI0lwTO-5E6-52" target="fRFriNabQBI0lwTO-5E6-36" edge="1">
          <mxGeometry width="50" height="50" relative="1" as="geometry">
            <mxPoint x="780" y="560" as="sourcePoint" />
            <mxPoint x="770" y="290" as="targetPoint" />
            <Array as="points">
              <mxPoint x="760" y="555" />
              <mxPoint x="760" y="380" />
              <mxPoint x="760" y="270" />
              <mxPoint x="740" y="240" />
            </Array>
          </mxGeometry>
        </mxCell>
        <mxCell id="fRFriNabQBI0lwTO-5E6-43" value="DataBases" style="shape=cylinder3;whiteSpace=wrap;html=1;boundedLbl=1;backgroundOutline=1;size=15;fontSize=11;" parent="1" vertex="1">
          <mxGeometry x="730" y="90" width="60" height="50" as="geometry" />
        </mxCell>
        <mxCell id="fRFriNabQBI0lwTO-5E6-45" value="" style="endArrow=classic;startArrow=classic;html=1;rounded=0;exitX=0.5;exitY=0;exitDx=0;exitDy=0;entryX=0.5;entryY=1;entryDx=0;entryDy=0;entryPerimeter=0;" parent="1" source="fRFriNabQBI0lwTO-5E6-36" target="fRFriNabQBI0lwTO-5E6-43" edge="1">
          <mxGeometry width="50" height="50" relative="1" as="geometry">
            <mxPoint x="720" y="180" as="sourcePoint" />
            <mxPoint x="770" y="130" as="targetPoint" />
            <Array as="points">
              <mxPoint x="725" y="170" />
              <mxPoint x="725" y="160" />
              <mxPoint x="760" y="160" />
            </Array>
          </mxGeometry>
        </mxCell>
        <mxCell id="fRFriNabQBI0lwTO-5E6-50" style="edgeStyle=orthogonalEdgeStyle;rounded=0;orthogonalLoop=1;jettySize=auto;html=1;entryX=0;entryY=0;entryDx=0;entryDy=0;fillColor=#f8cecc;strokeColor=#b85450;" parent="1" source="fRFriNabQBI0lwTO-5E6-48" target="YeN5vL-DaQQFCyyVUgX1-74" edge="1">
          <mxGeometry relative="1" as="geometry">
            <Array as="points">
              <mxPoint x="285" y="40" />
              <mxPoint x="285" y="170" />
              <mxPoint x="300" y="170" />
            </Array>
          </mxGeometry>
        </mxCell>
        <mxCell id="fRFriNabQBI0lwTO-5E6-48" value="MQTT Broker" style="rounded=1;whiteSpace=wrap;html=1;dashed=1;movable=1;resizable=1;rotatable=1;deletable=1;editable=1;locked=0;connectable=1;strokeColor=#007FFF;fillColor=none;" parent="1" vertex="1">
          <mxGeometry x="660" y="20" width="94.6" height="50" as="geometry" />
        </mxCell>
        <mxCell id="fRFriNabQBI0lwTO-5E6-55" style="edgeStyle=orthogonalEdgeStyle;rounded=0;orthogonalLoop=1;jettySize=auto;html=1;entryX=0.5;entryY=1;entryDx=0;entryDy=0;" parent="1" source="fRFriNabQBI0lwTO-5E6-52" target="fRFriNabQBI0lwTO-5E6-53" edge="1">
          <mxGeometry relative="1" as="geometry" />
        </mxCell>
        <mxCell id="fRFriNabQBI0lwTO-5E6-52" value="Get Locations" style="rounded=0;whiteSpace=wrap;html=1;fontSize=9;" parent="1" vertex="1">
          <mxGeometry x="675.0000000000001" y="540" width="70" height="30" as="geometry" />
        </mxCell>
        <mxCell id="fRFriNabQBI0lwTO-5E6-53" value="Historical Location Data Is Shown On Google Maps" style="rounded=0;whiteSpace=wrap;html=1;fontSize=8;" parent="1" vertex="1">
          <mxGeometry x="675.0000000000001" y="480" width="70" height="30" as="geometry" />
        </mxCell>
      </root>
    </mxGraphModel>
  </diagram>
</mxfile>
